<svg xmlns:xlink="http://www.w3.org/1999/xlink" xmlns="http://www.w3.org/2000/svg" width="22" height="22" viewBox="0 0 22 22" fill="none" aria-labelledby="by-use-case-icon" role="img">
  <g id="Component 8" fill="none">
    <path id="Vector" d="M4 9C5.65685 9 7 7.65685 7 6C7 4.34315 5.65685 3 4 3C2.34315 3 1 4.34315 1 6C1 7.65685 2.34315 9 4 9Z" stroke="#212529" stroke-width="1.2px" fill="none"></path>
    <path id="Vector_2" d="M7 21C9.20914 21 11 19.2091 11 17C11 14.7909 9.20914 13 7 13C4.79086 13 3 14.7909 3 17C3 19.2091 4.79086 21 7 21Z" stroke="#212529" stroke-width="1.2px" fill="none"></path>
    <path id="Vector_3" d="M16 11C18.7614 11 21 8.76142 21 6C21 3.23858 18.7614 1 16 1C13.2386 1 11 3.23858 11 6C11 8.76142 13.2386 11 16 11Z" stroke="#212529" stroke-width="1.2px" fill="none"></path>
  </g>
<title id="by-use-case-icon" fill="none">By use case</title></svg>