<svg xmlns:xlink="http://www.w3.org/1999/xlink" xmlns="http://www.w3.org/2000/svg" width="24" height="24" viewBox="0 0 24 24" fill="none" aria-labelledby="course-solutions-icon" role="img">
<path d="M8.5 2.25781H5C3.89543 2.25781 3 3.15324 3 4.25781V20.2578C3 21.3624 3.89543 22.2578 5 22.2578H8.5C9.60457 22.2578 10.5 21.3624 10.5 20.2578V4.25781C10.5 3.15324 9.60457 2.25781 8.5 2.25781Z" stroke="#212529" stroke-width="1.2px" stroke-linecap="round" stroke-linejoin="round" fill="none"></path>
<path d="M3 6.75781H10.5" stroke="#212529" stroke-width="1.5px" stroke-linecap="round" stroke-linejoin="round" fill="none"></path>
<path d="M6 17.7578H7.5" stroke="#212529" stroke-width="1.5px" stroke-linecap="round" stroke-linejoin="round" fill="none"></path>
<path d="M16.2188 17.7978L17.6887 17.4878" stroke="#212529" stroke-width="1.5px" stroke-linecap="round" stroke-linejoin="round" fill="none"></path>
<path d="M15.5087 2.41703L12.0852 3.14472C11.0048 3.37438 10.3151 4.43641 10.5447 5.51684L13.7674 20.6781C13.997 21.7586 15.059 22.4483 16.1395 22.2186L19.563 21.4909C20.6434 21.2613 21.3331 20.1992 21.1035 19.1188L17.8808 3.9575C17.6512 2.87707 16.5892 2.18738 15.5087 2.41703Z" stroke="#212529" stroke-width="1.5px" stroke-linecap="round" stroke-linejoin="round" fill="none"></path>
<path d="M11.0391 7.8476L18.3791 6.2876" stroke="#212529" stroke-width="1.5px" stroke-linecap="round" stroke-linejoin="round" fill="none"></path>
<title id="course-solutions-icon" fill="none">Course solutions</title></svg>