<svg xmlns:xlink="http://www.w3.org/1999/xlink" xmlns="http://www.w3.org/2000/svg" width="24" height="24" viewBox="0 0 24 24" fill="none" aria-labelledby="who-we-are-icon" role="img">
<path d="M19 13.001H10" stroke="#212529" stroke-width="1.5px" stroke-linecap="round" stroke-linejoin="round" fill="none"></path>
<path d="M16 16.001H10" stroke="#212529" stroke-width="1.5px" stroke-linecap="round" stroke-linejoin="round" fill="none"></path>
<path d="M7 19.251V5.00098C7 3.34098 8.34 2.00098 10 2.00098H19C20.66 2.00098 22 3.34098 22 5.00098V19.001C22 20.661 20.66 22.001 19 22.001H4.5" stroke="#212529" stroke-width="1.5px" stroke-linecap="round" stroke-linejoin="round" fill="none"></path>
<path d="M4.5 22.001C3.12 22.001 2 20.881 2 19.501L2 11.001C2 9.62098 3.12 8.50098 4.5 8.50098H7L7 19.501C7 20.881 5.88 22.001 4.5 22.001Z" stroke="#212529" stroke-width="1.5px" stroke-linecap="round" stroke-linejoin="round" fill="none"></path>
<path d="M13.46 6.00098H10.54C10.2418 6.00098 10 6.24274 10 6.54098V9.46098C10 9.75921 10.2418 10.001 10.54 10.001H13.46C13.7582 10.001 14 9.75921 14 9.46098V6.54098C14 6.24274 13.7582 6.00098 13.46 6.00098Z" stroke="#212529" stroke-width="1.5px" stroke-linecap="round" stroke-linejoin="round" fill="none"></path>
<title id="who-we-are-icon" fill="none">Who we are</title></svg>